<?xml version="1.0" encoding="utf-8"?>
<!-- Generator: Adobe Illustrator 23.1.1, SVG Export Plug-In . SVG Version: 6.00 Build 0)  -->
<svg version="1.1" id="Layer_1" xmlns="http://www.w3.org/2000/svg" xmlns:xlink="http://www.w3.org/1999/xlink" x="0px" y="0px"
	 width="34px" height="15px" viewBox="0 0 34 15" style="enable-background:new 0 0 34 15;" xml:space="preserve">
<style type="text/css">
	.st0{fill:#EC2027;}
	.st1{fill:#FFFFFF;}
</style>
<path class="st0" d="M32.8,15H1.2C0.5,15,0,14.5,0,13.8V1.2C0,0.5,0.5,0,1.2,0h31.6C33.5,0,34,0.5,34,1.2v12.6
	C34,14.5,33.5,15,32.8,15z"/>
<g>
	<path class="st1" d="M4.9,4H7c1,0,1.7,0.1,2.1,0.4c0.4,0.3,0.7,0.7,0.7,1.3c0,0.4-0.1,0.7-0.3,1S9.1,7.2,8.8,7.3v0
		c0.4,0.1,0.7,0.3,0.9,0.5C9.9,8.1,10,8.5,10,8.9c0,0.6-0.2,1.1-0.7,1.5s-1.1,0.5-1.8,0.5H4.9V4z M6.4,6.8h0.8
		c0.4,0,0.7-0.1,0.9-0.2C8.2,6.4,8.3,6.2,8.3,6c0-0.3-0.1-0.5-0.3-0.6C7.8,5.3,7.5,5.2,7.1,5.2H6.4V6.8z M6.4,7.9v1.8h0.9
		c0.4,0,0.7-0.1,0.9-0.2c0.2-0.2,0.3-0.4,0.3-0.7c0-0.6-0.4-0.9-1.2-0.9H6.4z"/>
	<path class="st1" d="M15.2,10.9l-0.5-1.6h-2.5l-0.5,1.6h-1.6L12.6,4h1.8l2.4,6.9H15.2z M14.4,8c-0.5-1.5-0.7-2.3-0.8-2.5
		c-0.1-0.2-0.1-0.3-0.1-0.5c-0.1,0.4-0.4,1.4-0.9,3H14.4z"/>
	<path class="st1" d="M18.9,8.3v2.6h-1.5V4h2c0.9,0,1.6,0.2,2.1,0.5c0.4,0.3,0.7,0.9,0.7,1.5c0,0.4-0.1,0.8-0.3,1.1
		c-0.2,0.3-0.5,0.6-0.9,0.7l2,3h-1.6l-1.6-2.6H18.9z M18.9,7.1h0.5c0.5,0,0.8-0.1,1-0.2c0.2-0.2,0.3-0.4,0.3-0.7
		c0-0.3-0.1-0.6-0.3-0.7c-0.2-0.1-0.6-0.2-1-0.2h-0.4V7.1z"/>
	<path class="st1" d="M29.1,4v4.4c0,0.5-0.1,1-0.3,1.3c-0.2,0.4-0.6,0.7-1,0.9c-0.4,0.2-0.9,0.3-1.5,0.3c-0.9,0-1.6-0.2-2.1-0.7
		s-0.7-1.1-0.7-1.9V4h1.4v4.2c0,0.5,0.1,0.9,0.3,1.2s0.6,0.4,1.1,0.4c0.5,0,0.8-0.1,1-0.4s0.3-0.6,0.3-1.2V4H29.1z"/>
</g>
</svg>
