<svg xmlns="http://www.w3.org/2000/svg" viewBox="0 0 428.7 324.6"><defs><style>.cls-1{fill:#fff;}.cls-2{fill:#ed1c24;}.cls-3{fill:#121b21;}</style></defs><title>logo</title><g id="Layer_2" data-name="Layer 2"><g id="Layer_2-2" data-name="Layer 2"><path class="cls-1" d="M428.62,172a65.73,65.73,0,0,0-8.45-29.58,65.62,65.62,0,0,0,8.53-32.31c0-35.76-28.78-64.86-64.15-64.86l-64.29.06c-13.37,0-17,11.12-17.12,17v12C267.72,55.91,245.28,45,222.18,45a83.85,83.85,0,0,0-46.39,14,84,84,0,0,0-46.4-14c-23.88,0-47.49,12-62.8,31.63v-.55A33.12,33.12,0,0,0,58.1,55.56,33.31,33.31,0,1,0,0,33.32,33.08,33.08,0,0,0,8.54,55.61,33.14,33.14,0,0,0,.07,77.08V273.56c0,30.35,25.33,51,50.17,51H377.42c30,0,51.28-26,51.28-51v-99.7l0-1.87Z"/><path class="cls-2" d="M17.13,33.31A16.18,16.18,0,1,1,33.31,49.48,16.17,16.17,0,0,1,17.13,33.31Z"/><path class="cls-3" d="M33.35,62.36A16.49,16.49,0,0,0,17.12,78V222.51H49.55v-145A16.31,16.31,0,0,0,33.35,62.36Z"/><path class="cls-3" d="M222.18,62.12a65.83,65.83,0,0,0-40.33,13.6l-6,4.72-6.06-4.72a65.9,65.9,0,0,0-40.35-13.6c-33.16,0-62.24,28.54-62.24,61.08v99.31H99.56v-98.9c0-16.23,13.12-28.94,29.87-28.94s30.48,13,30.48,28.94v82.18c0,12.14,10.23,15.34,15.69,15.34a15.85,15.85,0,0,0,15.74-15.34V123.58c0-16,13.67-28.91,30.48-28.91,16.64,0,30.17,13,30.17,28.94v98.9h32.43V123.2C284.42,90.66,255.33,62.12,222.18,62.12Z"/><path class="cls-3" d="M363.75,157.68a16.81,16.81,0,0,1,0,33.62H300v31.18l64.44,0c25.88-.07,46.93-21.49,46.93-47.76a48.61,48.61,0,0,0-9.31-28.53l-2.78-3.78,2.76-3.77a48.61,48.61,0,0,0,9.33-28.54c0-26.34-21.11-47.77-47-47.77L300,62.43V93.37h63.69a16.8,16.8,0,0,1,0,33.59l-34.34,0h-.22a15.36,15.36,0,1,0,0,30.71Z"/><path class="cls-2" d="M268.64,263.5a10.07,10.07,0,1,0,10.07,10.06A10.07,10.07,0,0,0,268.64,263.5Z"/><path class="cls-2" d="M377.42,239.57a34,34,0,0,0-27.2,13.6,34,34,0,0,0-54.38,0,34.51,34.51,0,0,0-9.28-8.5l0,28.89A17.92,17.92,0,1,1,278,258.32l.73.45V241.08a34,34,0,0,0-37.24,12.09,34,34,0,0,0-54.39,0,34,34,0,0,0-54.38,0,34,34,0,0,0-54.39,0,34,34,0,1,0,0,40.79,34,34,0,0,0,54.39,0,34,34,0,0,0,54.38,0,34,34,0,0,0,54.39,0,34,34,0,0,0,54.38,0,34,34,0,0,0,54.38,0,34,34,0,1,0,27.2-54.39Z"/><path class="cls-1" d="M278,258.32a17.87,17.87,0,1,0,8.56,15.24l0-28.89a34.34,34.34,0,0,0-7.86-3.59v17.69Zm-9.32,25.31a10.07,10.07,0,1,1,10.07-10.07A10.07,10.07,0,0,1,268.64,283.63Z"/><path class="cls-1" d="M323,291.45a17.89,17.89,0,1,1,17.88-17.89A17.9,17.9,0,0,1,323,291.45Zm0-27.95a10.07,10.07,0,1,0,10.06,10.06A10.08,10.08,0,0,0,323,263.5Z"/><path class="cls-1" d="M377.42,291.45a17.89,17.89,0,1,1,17.89-17.89A17.9,17.9,0,0,1,377.42,291.45Zm0-27.95a10.07,10.07,0,1,0,10.06,10.06A10.07,10.07,0,0,0,377.42,263.5Z"/><path class="cls-1" d="M105.51,291.45a17.89,17.89,0,1,1,17.87-17.89A17.91,17.91,0,0,1,105.51,291.45Zm0-27.95a10.07,10.07,0,1,0,10,10.06A10.08,10.08,0,0,0,105.51,263.5Z"/><path class="cls-1" d="M51.12,291.45A17.89,17.89,0,1,1,69,273.56,17.9,17.9,0,0,1,51.12,291.45Zm0-27.95a10.07,10.07,0,1,0,10.06,10.06A10.08,10.08,0,0,0,51.12,263.5Z"/><path class="cls-1" d="M214.88,291.46c-.58,0-1.11,0-1.63,0l-.42,0-.57-.05a17.89,17.89,0,1,1,19.89-17.77,16.72,16.72,0,0,1-.33,3.39h-27l.54,1.3a10,10,0,0,0,7,5.19,14,14,0,0,0,2.68.25h.44a10.7,10.7,0,0,0,6.76-2.47l.22-.21,7.27,3.9-.33.37c-3.27,3.95-7.94,6-13.89,6.18Zm-.62-28a10,10,0,0,0-9.31,6.28l0,.12,18.7,0,0-.11A9.93,9.93,0,0,0,214.26,263.5Z"/><path class="cls-1" d="M143.06,290.55v-17l0-1a17.88,17.88,0,0,1,33.85-7L170,269.25a10.05,10.05,0,0,0-19.13,4.33v17Z"/></g></g></svg>